<svg preserveAspectRatio="none" width="100%" height="100%" overflow="visible" style="display: block;" viewBox="0 0 1320 96" fill="none" xmlns="http://www.w3.org/2000/svg">
<g id="SVG-NoMad-Wynwood__Mark" clip-path="url(#clip0_0_495)">
<path id="Vector" d="M45.8279 12.3529V93.7338H34.8537V12.3529H0.798828V1.4906H80.0221V12.3529H45.8279Z" fill="var(--fill-0, #F6F4EB)"/>
<path id="Vector_2" d="M175.201 93.7342V51.0092H115.314V93.7342H104.2V1.47375H115.314V40.1297H175.201V1.47375H186.298V93.7342H175.201Z" fill="var(--fill-0, #F6F4EB)"/>
<path id="Vector_3" d="M221.538 93.7342V1.47375H298.392V12.336H232.634V40.4918H267.194V51.3541H232.634V82.8547H301.127V93.717H221.521L221.538 93.7342Z" fill="var(--fill-0, #F6F4EB)"/>
<path id="Vector_4" d="M447.013 93.7342L386.254 18.6465V93.7342H375.28V1.47375H386.254L447.013 77.5443V1.47375H458.127V93.7342H447.013Z" fill="var(--fill-0, #F6F4EB)"/>
<path id="Vector_5" d="M537.141 96.0785C509.932 96.0785 487.112 75.3367 487.112 48.043C487.112 20.7493 510.437 -0.613159 537.89 -0.613159C565.343 -0.613159 587.796 19.7666 587.796 47.4223C587.796 75.0781 565.221 96.0785 537.141 96.0785ZM538.012 10.3698C516.429 10.3698 498.208 26.1805 498.208 48.043C498.208 69.9055 516.307 85.2162 537.385 85.2162C558.462 85.2162 576.683 69.5262 576.683 47.6809C576.683 25.8357 559.472 10.3871 537.994 10.3871L538.012 10.3698Z" fill="var(--fill-0, #F6F4EB)"/>
<path id="Vector_6" d="M698.305 93.7342V23.0949L662.874 85.9582L628.07 23.0949V93.7342H617.096V1.47375H628.331L662.891 63.8371L698.583 1.47375H709.436V93.7342H698.322H698.305Z" fill="var(--fill-0, #F6F4EB)"/>
<path id="Vector_7" d="M818.133 93.7342L802.908 61.9922H757.984L743.264 93.7342H731.036L775.455 1.47375H786.691L830.361 93.7342H818.133ZM780.942 14.6981L763.471 51.2506H798.031L780.942 14.6981Z" fill="var(--fill-0, #F6F4EB)"/>
<path id="Vector_8" d="M899.272 93.7342H852.101V1.47375H898.018C932.073 1.47375 941.183 34.4572 941.183 47.9057C941.183 70.751 923.59 93.717 899.255 93.717L899.272 93.7342ZM898.018 12.3533H863.075V82.872H899.255C917.597 82.872 930.191 64.3544 930.191 47.5437C930.191 27.9053 916.587 12.3533 898.001 12.3533H898.018Z" fill="var(--fill-0, #F6F4EB)"/>
<path id="Vector_9" d="M1092.58 87.3203C1086.1 92.9928 1080.47 93.7342 1067.61 93.7342H1015.46V1.47375H1067.61C1083.95 1.47375 1097.05 9.37046 1097.05 26.7846C1097.05 34.9399 1094.18 40.2504 1087.94 45.5608C1096.3 50.6299 1101.29 58.406 1101.29 68.2855C1101.29 75.6994 1098.17 82.372 1092.56 87.3031L1092.58 87.3203ZM1077.23 13.4567C1075.61 12.836 1072.73 12.336 1068.24 12.336H1026.57V41.1125H1067.63C1077.61 41.1125 1085.97 37.1641 1085.97 26.1639C1085.97 20.7327 1082.98 15.7843 1077.25 13.4395L1077.23 13.4567ZM1067.61 51.992H1026.56V82.872H1067.61C1079.09 82.872 1081.97 81.7513 1085.21 79.165C1088.71 76.4408 1090.33 72.4924 1090.33 68.1648C1090.33 55.0783 1078.73 51.992 1067.61 51.992Z" fill="var(--fill-0, #F6F4EB)"/>
<path id="Vector_10" d="M1200.71 93.7342L1185.49 61.9922H1140.56L1125.85 93.7342H1113.62L1158.04 1.47375H1169.27L1212.94 93.7342H1200.71ZM1163.52 14.6981L1146.05 51.2506H1180.61L1163.52 14.6981Z" fill="var(--fill-0, #F6F4EB)"/>
<path id="Vector_11" d="M1309.48 49.888C1304.86 53.7156 1301 54.5777 1295.25 55.5605L1316.95 93.7165H1304.36L1282.78 55.5605H1245.73V93.7165H1234.75V1.45594H1281.42C1296.52 1.45594 1300.75 1.95595 1307.88 6.52501C1315.11 11.2148 1319.24 20.2322 1319.24 28.6289C1319.24 37.0256 1315.73 44.6809 1309.5 49.8707L1309.48 49.888ZM1287.9 12.3527H1245.73V44.7154H1285.89C1294.26 44.7154 1298.12 44.4741 1301.87 41.8706C1305.98 39.0257 1308.23 33.7152 1308.23 28.7841C1308.23 16.6804 1298.75 12.3527 1287.88 12.3527H1287.9Z" fill="var(--fill-0, #F6F4EB)"/>
</g>
<defs>
<clipPath id="clip0_0_495">
<rect width="1320" height="96" fill="white"/>
</clipPath>
</defs>
</svg>
