<svg preserveAspectRatio="none" width="100%" height="100%" overflow="visible" style="display: block;" viewBox="0 0 188.347 183.713" fill="none" xmlns="http://www.w3.org/2000/svg">
<g id="Group">
<path id="Vector" d="M63.4917 104.736C63.4917 112.929 66.6832 120.635 72.4768 126.429C78.2764 132.223 85.9801 135.414 94.1703 135.414C102.361 135.414 110.076 132.223 115.867 126.429C121.666 120.629 124.855 112.926 124.852 104.736C124.852 96.5423 121.66 88.8386 115.87 83.042C110.07 77.2484 102.364 74.0569 94.1703 74.0509C85.974 74.0569 78.2704 77.2514 72.4768 83.042C66.6862 88.8326 63.4948 96.5362 63.4917 104.732V104.736ZM71.9872 123.319C70.1346 121.116 68.6295 118.656 67.5083 115.999C66.0002 112.43 65.2325 108.64 65.2325 104.736C65.2325 100.831 65.9971 97.0379 67.5083 93.4717C68.6325 90.8152 70.1376 88.3551 71.9902 86.1488V123.316L71.9872 123.319ZM116.356 86.1519C118.209 88.3611 119.717 90.8182 120.841 93.4687C122.35 97.0439 123.114 100.834 123.114 104.736C123.117 108.625 122.353 112.415 120.841 115.999C119.72 118.647 118.212 121.107 116.353 123.319V86.1519H116.356ZM114.613 123.896L95.4245 104.714L114.613 85.5263V123.896ZM79.8933 79.5574C80.8635 79.0073 81.8759 78.5056 82.9095 78.0704C86.4757 76.5654 90.2656 75.8007 94.1733 75.7977C98.069 75.7977 101.862 76.5624 105.443 78.0704C108.626 79.4184 111.503 81.3012 114.005 83.6676L94.1975 103.484L79.8933 89.1771V79.5544V79.5574ZM114.014 125.8C111.497 128.176 108.61 130.059 105.44 131.404C101.856 132.909 98.0659 133.676 94.1703 133.679C90.2716 133.676 86.4818 132.912 82.9065 131.404C81.888 130.971 80.8756 130.473 79.8964 129.917L79.8903 91.6825L114.014 125.8ZM78.1556 80.6303V87.4423L74.3596 83.6434C75.5625 82.5161 76.8379 81.5037 78.1556 80.6303ZM73.731 85.5202L78.1525 89.9448L78.1586 128.85C76.5659 127.789 75.0819 126.571 73.731 125.217V85.5202Z" fill="var(--fill-0, #0E0E0E)"/>
<path id="Vector_2" d="M38.7428 45.7327L80.114 69.7956C80.4283 69.98 80.8091 69.6898 80.7154 69.3362L79.5941 65.1474C79.5125 64.8422 79.7906 64.5641 80.0958 64.6457L84.2846 65.767C84.6382 65.8607 84.9284 65.4829 84.744 65.1656L60.6841 23.7944C60.4514 23.3924 59.8348 23.6281 59.9316 24.0845L65.3323 49.8912C65.3927 50.1814 65.1358 50.4352 64.8487 50.3748L39.0419 44.9741C38.5886 44.8804 38.3499 45.4939 38.7518 45.7266L38.7428 45.7327Z" fill="var(--fill-0, #0E0E0E)"/>
<path id="Vector_3" d="M86.7145 64.0262C86.8958 64.3435 87.3703 64.28 87.464 63.9295L88.5852 59.7407C88.6668 59.4354 89.0476 59.3357 89.2683 59.5563L92.638 62.9261C92.7861 63.0742 93.037 62.9684 93.0339 62.7599L92.8768 0.23311C92.8768 -0.0298236 92.5051 -0.0902697 92.4235 0.160575L83.7708 39.655C83.7195 39.8152 83.52 39.8665 83.3961 39.7547L63.5431 21.9961C63.1986 21.6879 62.6848 22.1019 62.9145 22.5039L86.7115 64.0262H86.7145Z" fill="var(--fill-0, #0E0E0E)"/>
<path id="Vector_4" d="M95.7086 62.9261L99.0784 59.5563C99.302 59.3327 99.6798 59.4354 99.7614 59.7407L100.883 63.9295C100.976 64.2831 101.451 64.3435 101.632 64.0262L125.429 22.5039C125.659 22.1019 125.148 21.6848 124.801 21.9961L104.951 39.7547C104.827 39.8665 104.627 39.8121 104.576 39.655L95.9232 0.160572C95.8416 -0.0902725 95.4699 -0.0328486 95.4699 0.233107L95.3127 62.7599C95.3127 62.9684 95.5635 63.0711 95.7086 62.9261Z" fill="var(--fill-0, #0E0E0E)"/>
<path id="Vector_5" d="M104.068 65.767L108.257 64.6457C108.562 64.5641 108.84 64.8422 108.759 65.1474L107.637 69.3362C107.544 69.6898 107.921 69.98 108.239 69.7956L149.61 45.7357C150.012 45.503 149.776 44.8864 149.32 44.9832L123.513 50.3839C123.223 50.4443 122.969 50.1874 123.029 49.9003L128.43 24.0936C128.524 23.6402 127.91 23.4015 127.678 23.8034L103.618 65.1746C103.433 65.4889 103.724 65.8697 104.077 65.776L104.068 65.767Z" fill="var(--fill-0, #0E0E0E)"/>
<path id="Vector_6" d="M137.273 56.0052L140.489 66.5739C140.513 66.583 140.513 66.6162 140.492 66.6283L137.63 68.3026C137.609 68.3147 137.612 68.3479 137.633 68.357L155.642 70.4393C155.666 70.4575 155.7 70.4303 155.688 70.4031L149.752 56.4313C149.704 56.3195 149.55 56.3104 149.489 56.4162L148.078 58.8823C148.017 58.9881 147.86 58.9791 147.815 58.8672L146.228 55.1348C146.177 55.0109 145.998 55.0169 145.953 55.1439L144.926 58.0664C144.856 58.1026 144.814 58.1238 144.744 58.16L137.306 55.975L137.246 55.9085L137.261 55.9629L137.207 55.9478L137.273 56.0082V56.0052ZM145.602 63.3492C145.763 62.2582 146.651 61.3636 147.739 61.1913C149.486 60.9163 150.979 62.3912 150.719 64.141C150.559 65.232 149.67 66.1266 148.582 66.2989C146.836 66.5739 145.343 65.0991 145.602 63.3492Z" fill="var(--fill-0, #0E0E0E)"/>
<path id="Vector_7" d="M148.28 64.4855C148.594 64.4372 148.851 64.1773 148.897 63.863C148.972 63.3583 148.54 62.9321 148.035 63.0107C147.721 63.0591 147.464 63.319 147.419 63.6333C147.343 64.138 147.775 64.5641 148.28 64.4855Z" fill="var(--fill-0, #0E0E0E)"/>
<path id="Vector_8" d="M163.113 84.7375C163.198 84.9309 163.485 84.8704 163.485 84.6589V68.6079C163.485 68.5444 163.455 68.484 163.4 68.4477L153.454 61.6507C153.294 61.5419 153.089 61.7112 153.167 61.8895L163.113 84.7375Z" fill="var(--fill-0, #0E0E0E)"/>
<path id="Vector_9" d="M124.755 79.9865C125.435 84.9218 128.805 88.8537 132.713 91.9394C135.904 94.4599 139.513 96.5362 142.553 99.229C143.393 99.9725 144.203 100.758 144.871 101.623L151.955 94.8951C151.027 94.1215 150.039 93.4112 149.012 92.7736C144.653 90.0082 139.673 88.2644 135.357 85.4447C131.794 83.1145 129.379 79.8717 129.618 75.6315C129.808 72.2466 132.513 69.4904 135.511 67.3325C136.215 66.9184 138.243 65.7247 138.243 65.7247L136.917 61.7353C130.222 66.0722 123.589 71.4759 124.758 79.9835L124.755 79.9865Z" fill="var(--fill-0, #0E0E0E)"/>
<path id="Vector_10" d="M144.632 105.564C143.617 107.703 142.505 109.786 141.293 111.804C141.178 111.998 141.302 112.24 141.525 112.258L172.002 114.73C172.177 114.745 172.328 114.606 172.328 114.428V102.17C172.328 101.988 172.168 101.846 171.986 101.87L144.865 105.394C144.765 105.406 144.678 105.47 144.632 105.564Z" fill="var(--fill-0, #0E0E0E)"/>
<path id="Vector_11" d="M139.881 114.053C138.537 116.117 137.089 118.106 135.545 120.016C135.415 120.176 135.481 120.415 135.671 120.487L179.986 137.019C180.156 137.082 180.34 136.986 180.385 136.813L183.308 125.637C183.35 125.477 183.253 125.311 183.093 125.268L140.214 113.929C140.087 113.896 139.957 113.947 139.884 114.056L139.881 114.053Z" fill="var(--fill-0, #0E0E0E)"/>
<path id="Vector_12" d="M188.174 147.249L133.861 122.352C133.74 122.298 133.598 122.328 133.511 122.428C132.634 123.422 131.73 124.392 130.8 125.338C130.676 125.465 130.685 125.67 130.824 125.782L178.418 164.119C178.563 164.237 178.777 164.195 178.868 164.035L188.306 147.675C188.394 147.521 188.334 147.325 188.17 147.249H188.174Z" fill="var(--fill-0, #0E0E0E)"/>
<path id="Vector_13" d="M128.823 127.665C128.708 127.547 128.524 127.541 128.403 127.653C127.696 128.306 126.977 128.947 126.245 129.572C126.139 129.663 126.109 129.811 126.17 129.935L152.82 183.543C152.898 183.7 153.095 183.758 153.246 183.667L171.666 172.705C171.832 172.606 171.866 172.376 171.73 172.237L128.826 127.662L128.823 127.665Z" fill="var(--fill-0, #0E0E0E)"/>
<path id="Vector_14" d="M124.731 131.34C124.661 131.147 124.423 131.08 124.26 131.207C122.401 132.685 120.47 134.078 118.466 135.369C118.357 135.438 118.306 135.568 118.336 135.692L128.832 179.173C128.871 179.339 129.044 179.442 129.21 179.393L140.525 176.087C140.691 176.039 140.785 175.861 140.725 175.697C139.519 172.346 128.56 141.894 124.728 131.34H124.731Z" fill="var(--fill-0, #0E0E0E)"/>
<path id="Vector_15" d="M115.41 137.23C114.186 137.938 112.941 138.609 111.672 139.243C111.59 139.286 111.53 139.361 111.512 139.455L106.132 166.863C106.096 167.051 106.238 167.223 106.428 167.223H118.324C118.502 167.223 118.641 167.072 118.626 166.894C118.369 164.158 116.568 145.088 115.861 137.463C115.84 137.243 115.601 137.122 115.41 137.233V137.23Z" fill="var(--fill-0, #0E0E0E)"/>
<path id="Vector_16" d="M51.0402 55.972L43.6025 58.157C43.533 58.1208 43.4907 58.0996 43.4211 58.0633L42.3936 55.1408C42.3483 55.0139 42.17 55.0079 42.1186 55.1318L40.5319 58.8642C40.4836 58.976 40.3294 58.9851 40.269 58.8793L38.8576 56.4132C38.7971 56.3074 38.64 56.3165 38.5947 56.4283L32.659 70.4C32.6469 70.4272 32.6802 70.4544 32.7043 70.4363L50.7138 68.354C50.738 68.3449 50.7379 68.3117 50.7168 68.2996L47.8547 66.6253C47.8336 66.6132 47.8366 66.5799 47.8578 66.5709L51.0734 56.0022L51.1399 55.9417L51.0855 55.9568L51.1006 55.9024L51.0402 55.9689V55.972ZM39.7673 66.3019C38.6793 66.1296 37.7938 65.2351 37.6306 64.144C37.3707 62.3942 38.8636 60.9163 40.6105 61.1944C41.6985 61.3666 42.584 62.2612 42.7472 63.3522C43.0071 65.1021 41.5141 66.58 39.7673 66.3019Z" fill="var(--fill-0, #0E0E0E)"/>
<path id="Vector_17" d="M40.3083 63.0107C39.8035 62.9321 39.3744 63.3583 39.4469 63.863C39.4923 64.1773 39.7491 64.4372 40.0635 64.4855C40.5682 64.5641 40.9973 64.138 40.9248 63.6333C40.8795 63.319 40.6226 63.0591 40.3083 63.0107Z" fill="var(--fill-0, #0E0E0E)"/>
<path id="Vector_18" d="M25.2334 84.7375L35.1795 61.8895C35.2581 61.7112 35.0526 61.5419 34.8924 61.6507L24.9463 68.4477C24.8919 68.484 24.8617 68.5444 24.8617 68.6079V84.6589C24.8617 84.8704 25.1488 84.9279 25.2334 84.7375Z" fill="var(--fill-0, #0E0E0E)"/>
<path id="Vector_19" d="M45.7966 99.232C48.837 96.5392 52.4455 94.463 55.637 91.9424C59.5447 88.8568 62.9145 84.9248 63.5945 79.9896C64.7641 71.482 58.1273 66.0813 51.4361 61.7414L50.1093 65.7307C50.1093 65.7307 52.1372 66.9245 52.8414 67.3385C55.8425 69.4964 58.5443 72.2527 58.7347 75.6376C58.9735 79.8777 56.5587 83.1206 52.9955 85.4507C48.6798 88.2704 43.6992 90.0173 39.3411 92.7796C38.3136 93.4173 37.3253 94.1305 36.3975 94.9012L43.4816 101.629C44.1495 100.764 44.9595 99.9785 45.7996 99.2351L45.7966 99.232Z" fill="var(--fill-0, #0E0E0E)"/>
<path id="Vector_20" d="M16.3481 114.733L46.8242 112.261C47.0478 112.243 47.1717 111.998 47.0569 111.808C45.845 109.789 44.7298 107.706 43.7173 105.567C43.675 105.473 43.5874 105.409 43.4846 105.397L16.3632 101.873C16.1819 101.849 16.0217 101.991 16.0217 102.173V114.431C16.0217 114.606 16.1728 114.745 16.3481 114.733Z" fill="var(--fill-0, #0E0E0E)"/>
<path id="Vector_21" d="M7.96142 136.813C8.00675 136.986 8.1911 137.082 8.36035 137.019L52.6752 120.487C52.8686 120.415 52.9321 120.176 52.8021 120.016C51.2578 118.106 49.8101 116.114 48.4652 114.053C48.3957 113.944 48.2628 113.893 48.1358 113.926L5.2535 125.265C5.09332 125.308 4.99662 125.474 5.03893 125.634L7.96142 136.81V136.813Z" fill="var(--fill-0, #0E0E0E)"/>
<path id="Vector_22" d="M57.55 125.335C56.6192 124.392 55.7155 123.419 54.8391 122.425C54.7515 122.325 54.6094 122.295 54.4885 122.349L0.176167 147.246C0.0129674 147.322 -0.0474761 147.518 0.0401683 147.672L9.47857 164.032C9.57226 164.192 9.78684 164.231 9.92888 164.116L57.5228 125.779C57.6619 125.667 57.6739 125.462 57.547 125.335H57.55Z" fill="var(--fill-0, #0E0E0E)"/>
<path id="Vector_23" d="M62.1045 129.572C61.3732 128.947 60.6508 128.306 59.9467 127.653C59.8258 127.541 59.6384 127.547 59.5266 127.665L16.6231 172.24C16.4871 172.379 16.5203 172.609 16.6866 172.708L35.107 183.67C35.2581 183.761 35.4546 183.703 35.5331 183.546L62.1831 129.938C62.2435 129.814 62.2133 129.666 62.1075 129.575L62.1045 129.572Z" fill="var(--fill-0, #0E0E0E)"/>
<path id="Vector_24" d="M69.8777 135.369C67.877 134.075 65.9427 132.685 64.0841 131.207C63.9239 131.08 63.6851 131.144 63.6126 131.34C59.7804 141.894 48.8219 172.349 47.616 175.697C47.5586 175.86 47.6492 176.039 47.8154 176.087L59.1307 179.393C59.2969 179.442 59.4691 179.342 59.5084 179.173L70.0046 135.692C70.0348 135.568 69.9835 135.438 69.8747 135.369H69.8777Z" fill="var(--fill-0, #0E0E0E)"/>
<path id="Vector_25" d="M82.2144 166.86L76.8348 139.452C76.8167 139.361 76.7593 139.283 76.6747 139.24C75.4084 138.606 74.1602 137.935 72.9362 137.227C72.7458 137.119 72.507 137.239 72.4859 137.457C71.7787 145.082 69.9774 164.152 69.7205 166.887C69.7024 167.066 69.8444 167.217 70.0227 167.217H81.9182C82.1086 167.217 82.2507 167.045 82.2144 166.857V166.86Z" fill="var(--fill-0, #0E0E0E)"/>
<path id="Vector_26" d="M160.841 91.9485L158.338 96.7145C158.257 96.8717 158.093 96.9744 157.915 96.9805L152.535 97.1981C152.152 97.2132 151.928 97.6393 152.134 97.9657L155.08 102.623C155.286 102.949 155.766 102.928 155.945 102.587L158.447 97.8207C158.529 97.6635 158.692 97.5608 158.87 97.5547L164.25 97.3371C164.633 97.322 164.857 96.8959 164.652 96.5695L161.708 91.9122C161.502 91.5858 161.022 91.607 160.844 91.9485H160.841Z" fill="var(--fill-0, #0E0E0E)"/>
<path id="Vector_27" d="M24.0971 97.3371L29.4736 97.5547C29.6519 97.5608 29.8121 97.6635 29.8967 97.8207L32.3991 102.587C32.5774 102.928 33.0579 102.946 33.2635 102.623L36.2071 97.9657C36.4126 97.6393 36.189 97.2162 35.8051 97.1981L30.4256 96.9805C30.2473 96.9745 30.0871 96.8717 30.0025 96.7145L27.5001 91.9485C27.3218 91.607 26.8412 91.5889 26.6357 91.9122L23.6921 96.5695C23.4866 96.8959 23.7102 97.319 24.094 97.3371H24.0971Z" fill="var(--fill-0, #0E0E0E)"/>
</g>
</svg>
