<svg viewBox="0 0 76.1696 74.2957" fill="none" xmlns="http://www.w3.org/2000/svg">
<g id="Group">
<path id="Vector" d="M25.6768 42.3563C25.6768 45.6697 26.9675 48.7864 29.3105 51.1294C31.6559 53.4724 34.7714 54.7631 38.0836 54.7631C41.3958 54.7631 44.5161 53.4724 46.8579 51.1294C49.2034 48.7839 50.4928 45.6685 50.4916 42.3563C50.4916 39.0428 49.2009 35.9274 46.8591 33.5832C44.5137 31.2402 41.397 29.9495 38.0836 29.947C34.7689 29.9495 31.6535 31.2414 29.3105 33.5832C26.9687 35.9249 25.678 39.0404 25.6768 42.355V42.3563ZM29.1125 49.8717C28.3632 48.9807 27.7546 47.9858 27.3011 46.9115C26.6912 45.468 26.3808 43.9354 26.3808 42.3563C26.3808 40.7772 26.69 39.2433 27.3011 37.801C27.7558 36.7267 28.3645 35.7318 29.1137 34.8396V49.8705L29.1125 49.8717ZM47.0559 34.8408C47.8051 35.7343 48.415 36.7279 48.8697 37.7998C49.4796 39.2457 49.7888 40.7784 49.7888 42.3563C49.79 43.9293 49.4808 45.4619 48.8697 46.9115C48.4162 47.9822 47.8064 48.977 47.0547 49.8717V34.8408H47.0559ZM46.3507 50.1052L38.5908 42.3477L46.3507 34.5878V50.1052ZM32.3098 32.1739C32.7021 31.9515 33.1116 31.7486 33.5296 31.5726C34.9718 30.9639 36.5045 30.6547 38.0848 30.6535C39.6602 30.6535 41.1941 30.9627 42.6425 31.5726C43.9295 32.1177 45.093 32.8792 46.105 33.8362L38.0946 41.8503L32.3098 36.0643V32.1727V32.1739ZM46.1087 50.8752C45.0906 51.8358 43.9234 52.5973 42.6412 53.1412C41.1917 53.7498 39.659 54.0603 38.0836 54.0615C36.5069 54.0603 34.9742 53.7511 33.5284 53.1412C33.1165 52.9664 32.707 52.7647 32.311 52.5398L32.3086 37.0775L46.1087 50.8752ZM31.607 32.6078V35.3627L30.0719 33.8264C30.5584 33.3705 31.0741 32.961 31.607 32.6078ZM29.8177 34.5854L31.6058 36.3747L31.6082 52.1084C30.9641 51.6794 30.364 51.1868 29.8177 50.6393V34.5854Z" fill="var(--fill-0, #F6F4EB)"/>
<path id="Vector_2" d="M15.668 18.4948L32.399 28.2262C32.5261 28.3007 32.6801 28.1834 32.6422 28.0404L32.1888 26.3464C32.1558 26.2229 32.2682 26.1105 32.3917 26.1435L34.0857 26.5969C34.2287 26.6348 34.346 26.4821 34.2715 26.3537L24.5414 9.62272C24.4472 9.46016 24.1979 9.55549 24.237 9.74005L26.4211 20.1766C26.4456 20.2939 26.3417 20.3966 26.2256 20.3722L15.789 18.1881C15.6057 18.1502 15.5091 18.3983 15.6717 18.4924L15.668 18.4948Z" fill="var(--fill-0, #F6F4EB)"/>
<path id="Vector_3" d="M35.0684 25.8929C35.1417 26.0213 35.3336 25.9956 35.3715 25.8538L35.8249 24.1598C35.8579 24.0364 36.0119 23.996 36.1011 24.0853L37.4639 25.448C37.5238 25.5079 37.6252 25.4652 37.624 25.3808L37.5605 0.0942728C37.5605 -0.0120606 37.4101 -0.0365057 37.3771 0.0649387L33.8779 16.0369C33.8571 16.1017 33.7765 16.1225 33.7264 16.0773L25.6976 8.89549C25.5582 8.77083 25.3505 8.93827 25.4434 9.10083L35.0671 25.8929H35.0684Z" fill="var(--fill-0, #F6F4EB)"/>
<path id="Vector_4" d="M38.7057 25.448L40.0685 24.0853C40.1589 23.9948 40.3117 24.0364 40.3447 24.1598L40.7981 25.8538C40.836 25.9968 41.0279 26.0213 41.1012 25.8929L50.725 9.10083C50.8179 8.93827 50.6114 8.7696 50.4708 8.89549L42.4432 16.0773C42.3931 16.1225 42.3125 16.1005 42.2917 16.0369L38.7925 0.0649376C38.7595 -0.0365068 38.6091 -0.0132839 38.6091 0.0942716L38.5456 25.3808C38.5456 25.4652 38.647 25.5067 38.7057 25.448Z" fill="var(--fill-0, #F6F4EB)"/>
<path id="Vector_5" d="M42.0864 26.5969L43.7804 26.1435C43.9038 26.1105 44.0162 26.2229 43.9832 26.3464L43.5298 28.0404C43.4919 28.1834 43.6447 28.3007 43.773 28.2262L60.504 18.496C60.6666 18.4019 60.5712 18.1526 60.3867 18.1917L49.9501 20.3758C49.8328 20.4003 49.7301 20.2964 49.7546 20.1803L51.9387 9.74372C51.9766 9.56038 51.7285 9.46383 51.6344 9.62638L41.9042 26.3574C41.8297 26.4845 41.947 26.6385 42.09 26.6006L42.0864 26.5969Z" fill="var(--fill-0, #F6F4EB)"/>
<path id="Vector_6" d="M55.5149 22.6492L56.8154 26.9233C56.8251 26.9269 56.8251 26.9404 56.8166 26.9453L55.6591 27.6224C55.6506 27.6273 55.6518 27.6407 55.6604 27.6444L62.9436 28.4865C62.9534 28.4938 62.9668 28.4828 62.9619 28.4718L60.5615 22.8215C60.5419 22.7763 60.4796 22.7726 60.4551 22.8154L59.8844 23.8127C59.8599 23.8555 59.7964 23.8518 59.778 23.8066L59.1364 22.2972C59.1156 22.247 59.0435 22.2495 59.0251 22.3008L58.6096 23.4827C58.5815 23.4974 58.5644 23.5059 58.5362 23.5206L55.5284 22.6369L55.5039 22.61L55.51 22.6321L55.488 22.6259L55.5149 22.6504V22.6492ZM58.8834 25.6192C58.9481 25.1779 59.3075 24.8162 59.7475 24.7465C60.4539 24.6353 61.0577 25.2317 60.9526 25.9394C60.8878 26.3806 60.5285 26.7424 60.0885 26.812C59.382 26.9233 58.7782 26.3268 58.8834 25.6192Z" fill="var(--fill-0, #F6F4EB)"/>
<path id="Vector_7" d="M59.9663 26.0787C60.0934 26.0592 60.1973 25.954 60.2156 25.8269C60.2461 25.6228 60.0714 25.4505 59.8672 25.4823C59.7401 25.5018 59.6362 25.6069 59.6179 25.734C59.5874 25.9382 59.7621 26.1105 59.9663 26.0787Z" fill="var(--fill-0, #F6F4EB)"/>
<path id="Vector_8" d="M65.9649 34.2688C65.9991 34.3471 66.1152 34.3226 66.1152 34.237V27.7458C66.1152 27.7202 66.103 27.6957 66.081 27.6811L62.0587 24.9323C61.9939 24.8883 61.9108 24.9567 61.9426 25.0288L65.9649 34.2688Z" fill="var(--fill-0, #F6F4EB)"/>
<path id="Vector_9" d="M50.4525 32.3475C50.7275 34.3434 52.0902 35.9335 53.6706 37.1814C54.9612 38.2007 56.4206 39.0404 57.6501 40.1294C57.9899 40.43 58.3175 40.7478 58.5876 41.0974L61.4525 38.3767C61.0772 38.0638 60.6776 37.7766 60.262 37.5187C58.4996 36.4004 56.4854 35.6952 54.74 34.5548C53.299 33.6125 52.3225 32.301 52.419 30.5863C52.496 29.2174 53.5899 28.1027 54.8024 27.23C55.0871 27.0626 55.9072 26.5798 55.9072 26.5798L55.3707 24.9665C52.6635 26.7204 49.9807 28.9057 50.4537 32.3463L50.4525 32.3475Z" fill="var(--fill-0, #F6F4EB)"/>
<path id="Vector_10" d="M58.491 42.6912C58.0804 43.5565 57.6306 44.3986 57.1405 45.215C57.094 45.2933 57.1441 45.391 57.2346 45.3984L69.5595 46.3982C69.6304 46.4043 69.6915 46.3481 69.6915 46.2759V41.3186C69.6915 41.2453 69.6267 41.1878 69.5534 41.1976L58.5851 42.6227C58.5448 42.6276 58.5094 42.6533 58.491 42.6912Z" fill="var(--fill-0, #F6F4EB)"/>
<path id="Vector_11" d="M56.5697 46.1244C56.0258 46.9592 55.4404 47.7634 54.8158 48.5358C54.7632 48.6006 54.7901 48.6972 54.8671 48.7265L72.7886 55.4121C72.857 55.4377 72.9316 55.3986 72.9499 55.3289L74.1318 50.8092C74.1489 50.7444 74.1098 50.6772 74.045 50.6601L56.7041 46.0743C56.6528 46.0608 56.6002 46.0816 56.5709 46.1256L56.5697 46.1244Z" fill="var(--fill-0, #F6F4EB)"/>
<path id="Vector_12" d="M76.0996 59.5493L54.135 49.4806C54.0861 49.4586 54.0287 49.4708 53.9932 49.5112C53.6388 49.9133 53.2734 50.3056 52.8969 50.6882C52.8468 50.7395 52.8505 50.8226 52.9067 50.8678L72.1543 66.3717C72.2129 66.4194 72.2997 66.4023 72.3364 66.3375L76.1534 59.7216C76.1888 59.6593 76.1644 59.5798 76.0984 59.5493H76.0996Z" fill="var(--fill-0, #F6F4EB)"/>
<path id="Vector_13" d="M52.0976 51.6293C52.0511 51.5816 51.9766 51.5792 51.9277 51.6244C51.6417 51.8884 51.3508 52.1475 51.055 52.4005C51.0122 52.4372 51 52.497 51.0245 52.5472L61.802 74.2269C61.8338 74.2905 61.9132 74.3137 61.9744 74.277L69.4238 69.844C69.491 69.8037 69.5045 69.7108 69.4495 69.6546L52.0988 51.628L52.0976 51.6293Z" fill="var(--fill-0, #F6F4EB)"/>
<path id="Vector_14" d="M50.4427 53.1155C50.4146 53.0373 50.318 53.0104 50.252 53.0617C49.5004 53.6594 48.7194 54.2228 47.909 54.7447C47.865 54.7728 47.8442 54.8254 47.8565 54.8755L52.1012 72.4596C52.1171 72.5268 52.1868 72.5684 52.254 72.5488L56.83 71.2117C56.8972 71.1922 56.9351 71.1201 56.9107 71.0541C56.423 69.6986 51.9912 57.3835 50.4415 53.1155H50.4427Z" fill="var(--fill-0, #F6F4EB)"/>
<path id="Vector_15" d="M46.6734 55.4976C46.1784 55.7836 45.6748 56.0549 45.1615 56.3116C45.1285 56.3287 45.104 56.3593 45.0967 56.3972L42.9211 67.4815C42.9065 67.5573 42.9639 67.6269 43.0409 67.6269H47.8516C47.9237 67.6269 47.9799 67.5658 47.9738 67.4937C47.8699 66.3876 47.1415 58.6754 46.8555 55.5917C46.8469 55.5025 46.7504 55.4536 46.6734 55.4988V55.4976Z" fill="var(--fill-0, #F6F4EB)"/>
<path id="Vector_16" d="M20.6412 22.6357L17.6334 23.5194C17.6052 23.5047 17.5881 23.4962 17.56 23.4815L17.1445 22.2996C17.1261 22.2483 17.054 22.2458 17.0332 22.2959L16.3916 23.8054C16.372 23.8506 16.3097 23.8543 16.2852 23.8115L15.7145 22.8142C15.69 22.7714 15.6265 22.775 15.6081 22.8203L13.2077 28.4706C13.2028 28.4816 13.2162 28.4926 13.226 28.4853L20.5092 27.6432C20.519 27.6395 20.519 27.626 20.5105 27.6212L19.353 26.9441C19.3445 26.9392 19.3457 26.9257 19.3542 26.922L20.6547 22.6479L20.6816 22.6235L20.6596 22.6296L20.6657 22.6076L20.6412 22.6345V22.6357ZM16.0824 26.8133C15.6424 26.7436 15.2842 26.3818 15.2182 25.9406C15.1131 25.2329 15.7169 24.6353 16.4234 24.7477C16.8634 24.8174 17.2215 25.1792 17.2875 25.6204C17.3926 26.328 16.7888 26.9257 16.0824 26.8133Z" fill="var(--fill-0, #F6F4EB)"/>
<path id="Vector_17" d="M16.3011 25.4823C16.097 25.4505 15.9235 25.6228 15.9528 25.8269C15.9711 25.954 16.075 26.0592 16.2021 26.0787C16.4062 26.1105 16.5798 25.9382 16.5505 25.734C16.5321 25.6069 16.4282 25.5018 16.3011 25.4823Z" fill="var(--fill-0, #F6F4EB)"/>
<path id="Vector_18" d="M10.2047 34.2688L14.227 25.0288C14.2588 24.9567 14.1757 24.8883 14.1109 24.9323L10.0886 27.6811C10.0666 27.6957 10.0544 27.7202 10.0544 27.7458V34.237C10.0544 34.3226 10.1705 34.3458 10.2047 34.2688Z" fill="var(--fill-0, #F6F4EB)"/>
<path id="Vector_19" d="M18.5207 40.1306C19.7502 39.0416 21.2096 38.2019 22.5002 37.1826C24.0806 35.9347 25.4434 34.3446 25.7184 32.3487C26.1914 28.9082 23.5074 26.7241 20.8014 24.9689L20.2648 26.5823C20.2648 26.5823 21.0849 27.0651 21.3697 27.2325C22.5834 28.1052 23.676 29.2198 23.753 30.5887C23.8496 32.3035 22.873 33.6149 21.432 34.5573C19.6867 35.6976 17.6725 36.404 15.91 37.5212C15.4945 37.779 15.0948 38.0675 14.7196 38.3792L17.5845 41.0998C17.8546 40.7503 18.1821 40.4325 18.5219 40.1318L18.5207 40.1306Z" fill="var(--fill-0, #F6F4EB)"/>
<path id="Vector_20" d="M6.61136 46.3994L18.9362 45.3996C19.0267 45.3923 19.0768 45.2933 19.0304 45.2163C18.5402 44.3998 18.0892 43.5577 17.6798 42.6924C17.6627 42.6545 17.6272 42.6288 17.5857 42.6239L6.61747 41.1988C6.54413 41.1891 6.47936 41.2465 6.47936 41.3198V46.2772C6.47936 46.3481 6.54047 46.4043 6.61136 46.3994Z" fill="var(--fill-0, #F6F4EB)"/>
<path id="Vector_21" d="M3.21969 55.3289C3.23802 55.3986 3.31258 55.4377 3.38102 55.4121L21.3025 48.7265C21.3807 48.6972 21.4064 48.6006 21.3538 48.5358C20.7292 47.7634 20.1438 46.9579 19.5999 46.1244C19.5718 46.0804 19.518 46.0596 19.4667 46.073L2.12458 50.6588C2.0598 50.6759 2.02069 50.7432 2.0378 50.8079L3.21969 55.3277V55.3289Z" fill="var(--fill-0, #F6F4EB)"/>
<path id="Vector_22" d="M23.2739 50.6869C22.8975 50.3056 22.532 49.912 22.1776 49.5099C22.1421 49.4696 22.0847 49.4574 22.0358 49.4794L0.0712445 59.548C0.00524451 59.5786 -0.0191996 59.6581 0.0162449 59.7204L3.83324 66.3363C3.87113 66.4011 3.95791 66.4169 4.01536 66.3705L23.2629 50.8666C23.3191 50.8214 23.324 50.7383 23.2727 50.6869H23.2739Z" fill="var(--fill-0, #F6F4EB)"/>
<path id="Vector_23" d="M25.1158 52.4005C24.82 52.1475 24.5279 51.8884 24.2431 51.6244C24.1942 51.5792 24.1185 51.5816 24.0732 51.6293L6.72258 69.6558C6.66758 69.712 6.68102 69.8049 6.74824 69.8453L14.1977 74.2783C14.2588 74.3149 14.3382 74.2917 14.37 74.2282L25.1476 52.5484C25.172 52.4983 25.1598 52.4384 25.117 52.4017L25.1158 52.4005Z" fill="var(--fill-0, #F6F4EB)"/>
<path id="Vector_24" d="M28.2594 54.7447C27.4502 54.2216 26.668 53.6594 25.9164 53.0617C25.8516 53.0104 25.755 53.036 25.7257 53.1155C24.1759 57.3835 19.7441 69.6998 19.2565 71.054C19.2332 71.12 19.2699 71.1922 19.3371 71.2117L23.9131 72.5488C23.9804 72.5684 24.05 72.528 24.0659 72.4596L28.3107 54.8755C28.3229 54.8254 28.3021 54.7728 28.2581 54.7447H28.2594Z" fill="var(--fill-0, #F6F4EB)"/>
<path id="Vector_25" d="M33.2485 67.4803L31.0729 56.3959C31.0656 56.3593 31.0424 56.3275 31.0081 56.3104C30.496 56.0537 29.9912 55.7824 29.4962 55.4964C29.4192 55.4524 29.3227 55.5013 29.3141 55.5893C29.0281 58.6729 28.2997 66.3852 28.1958 67.4913C28.1885 67.5634 28.2459 67.6245 28.318 67.6245H33.1287C33.2057 67.6245 33.2631 67.5548 33.2485 67.479V67.4803Z" fill="var(--fill-0, #F6F4EB)"/>
<path id="Vector_26" d="M65.0458 37.185L64.0338 39.1125C64.0008 39.1761 63.9348 39.2176 63.8627 39.2201L61.6871 39.3081C61.5319 39.3142 61.4415 39.4865 61.5246 39.6185L62.7162 41.5019C62.7994 41.6339 62.9937 41.6254 63.0658 41.4873L64.0778 39.5598C64.1108 39.4963 64.1768 39.4547 64.2489 39.4523L66.4245 39.3643C66.5797 39.3582 66.6701 39.1858 66.587 39.0538L65.3966 37.1704C65.3135 37.0384 65.1191 37.0469 65.047 37.185H65.0458Z" fill="var(--fill-0, #F6F4EB)"/>
<path id="Vector_27" d="M9.74513 39.3643L11.9195 39.4523C11.9916 39.4547 12.0564 39.4963 12.0906 39.5598L13.1026 41.4873C13.1747 41.6254 13.369 41.6327 13.4521 41.5019L14.6426 39.6185C14.7257 39.4865 14.6352 39.3154 14.48 39.3081L12.3045 39.2201C12.2324 39.2176 12.1676 39.1761 12.1334 39.1125L11.1214 37.1851C11.0492 37.0469 10.8549 37.0396 10.7718 37.1704L9.58135 39.0538C9.49824 39.1858 9.58869 39.3569 9.74391 39.3643H9.74513Z" fill="var(--fill-0, #F6F4EB)"/>
</g>
</svg>
